<?xml version="1.0" encoding="UTF-8"?>
<svg width="149px" height="30px" viewBox="0 0 149 30" version="1.1" xmlns="http://www.w3.org/2000/svg" xmlns:xlink="http://www.w3.org/1999/xlink">
    <!-- Generator: Sketch 51.2 (57519) - http://www.bohemiancoding.com/sketch -->
    <title>TFB-logo-W</title>
    <desc>Created with Sketch.</desc>
    <defs></defs>
    <g id="Symbols" stroke="none" stroke-width="1" fill="none" fill-rule="evenodd">
        <g id="Nav-/-L1" transform="translate(-80.000000, -21.000000)">
            <g id="Logo-/-White" transform="translate(80.000000, 20.000000)">
                <g id="TMO_Business_LOCKUP_RGB_OnK" transform="translate(0.000000, 1.000000)">
                    <g id="Group" transform="translate(0.000000, 0.245902)" fill="#E20074" fill-rule="nonzero">
                        <g id="Shape">
                            <polygon points="0.123344371 19.4262295 6.0192053 19.4262295 6.0192053 13.5491803 0.123344371 13.5491803"></polygon>
                            <path d="M14.307947,1.54918033 C19.1183775,1.62295082 21.9799669,4.81967213 22.3993377,10.647541 L23.9534768,10.4016393 L23.6574503,0.172131148 L0.419370861,0.172131148 L0.123344371,10.4016393 L1.67748344,10.647541 C2.0968543,4.81967213 4.90910596,1.62295082 9.76887417,1.54918033 L9.76887417,22.9918033 C9.76887417,26.9016393 9.10281457,27.5163934 4.88443709,27.5655738 L4.88443709,29.2131148 L19.1923841,29.2131148 L19.1923841,27.5655738 C14.9740066,27.5163934 14.307947,26.9016393 14.307947,22.9918033 L14.307947,1.54918033 Z"></path>
                            <polygon points="18.0082781 19.4262295 23.9041391 19.4262295 23.9041391 13.5491803 18.0082781 13.5491803"></polygon>
                        </g>
                        <path d="M25.482947,9.07377049 L25.6309603,9.07377049 C25.7789735,9.07377049 25.8529801,9.12295082 25.8529801,9.24590164 C25.8529801,9.36885246 25.7789735,9.44262295 25.6062914,9.44262295 L25.482947,9.44262295 L25.482947,9.07377049 Z M25.8529801,9.59016393 C26.0256623,9.51639344 26.0996689,9.41803279 26.0996689,9.24590164 C26.0996689,9.12295082 26.0503311,9.02459016 25.9763245,8.97540984 C25.877649,8.90163934 25.7789735,8.87704918 25.6309603,8.87704918 L25.2115894,8.87704918 L25.2115894,10.1803279 L25.4582781,10.1803279 L25.4582781,9.66393443 L25.6062914,9.66393443 L25.9516556,10.1803279 L26.2476821,10.1803279 L25.8529801,9.59016393 Z M24.7922185,8.6557377 C24.5455298,8.90163934 24.4468543,9.17213115 24.4468543,9.51639344 C24.4468543,9.86065574 24.5701987,10.1311475 24.7922185,10.3770492 C25.0389073,10.6229508 25.3102649,10.7213115 25.6556291,10.7213115 C26.0009934,10.7213115 26.272351,10.5983607 26.5190397,10.3770492 C26.7657285,10.1311475 26.864404,9.86065574 26.864404,9.51639344 C26.864404,9.19672131 26.7410596,8.90163934 26.5190397,8.68032787 C26.272351,8.43442623 26.0009934,8.33606557 25.6556291,8.33606557 C25.3102649,8.31147541 25.0142384,8.43442623 24.7922185,8.6557377 Z M24.9402318,10.2295082 C24.7428808,10.0327869 24.6442053,9.81147541 24.6442053,9.54098361 C24.6442053,9.2704918 24.7428808,9.04918033 24.9402318,8.85245902 C25.1375828,8.6557377 25.3596026,8.55737705 25.6309603,8.55737705 C25.9023179,8.55737705 26.1490066,8.6557377 26.3216887,8.85245902 C26.5190397,9.04918033 26.6177152,9.2704918 26.6177152,9.54098361 C26.6177152,9.81147541 26.5190397,10.057377 26.3216887,10.2295082 C26.1243377,10.4262295 25.9023179,10.5245902 25.6309603,10.5245902 C25.3596026,10.5 25.1375828,10.4262295 24.9402318,10.2295082 Z" id="Shape"></path>
                    </g>
                    <g id="Group" transform="translate(31.082781, 0.000000)" fill="#FFFFFF" fill-rule="nonzero">
                        <g transform="translate(8.140728, 0.000000)" id="Shape">
                            <polygon points="3.30562914 13.5491803 3.30562914 2.87704918 0.123344371 2.87704918 0.123344371 0.491803279 9.32483444 0.491803279 9.32483444 2.87704918 6.11788079 2.87704918 6.11788079 13.5491803"></polygon>
                            <polygon points="13.0498344 7.47540984 13.0498344 9.83606557 8.68344371 9.83606557 8.68344371 7.47540984"></polygon>
                            <polygon points="16.1581126 13.5491803 16.1581126 0.467213115 19.9817881 0.467213115 22.3253311 9.41803279 24.5948675 0.467213115 28.3692053 0.467213115 28.3692053 13.5491803 25.680298 13.5491803 25.680298 4.45081967 23.4354305 13.5491803 21.1412252 13.5491803 18.8470199 4.57377049 18.8470199 13.5491803 16.1581126 13.5491803"></polygon>
                            <path d="M35.2518212,0.172131148 C36.7566225,0.172131148 38.0147351,0.737704918 39.0261589,1.86885246 C40.1609272,3.14754098 40.7529801,4.86885246 40.7529801,7.03278689 C40.7529801,8.87704918 40.3089404,10.4262295 39.4455298,11.6803279 C38.9274834,12.4180328 38.2860927,12.9836066 37.4966887,13.3770492 C36.8059603,13.7213115 36.0165563,13.8934426 35.1531457,13.8934426 C33.3029801,13.8934426 31.8475166,13.1311475 30.8114238,11.6311475 C29.9726821,10.4262295 29.5533113,8.90163934 29.5533113,7.05737705 C29.5533113,4.89344262 30.0960265,3.19672131 31.2061258,1.96721311 C32.2422185,0.762295082 33.5990066,0.172131148 35.2518212,0.172131148 Z M35.1284768,2.55737705 C34.2897351,2.55737705 33.6236755,2.97540984 33.1549669,3.76229508 C32.6369205,4.64754098 32.3902318,5.70491803 32.3902318,6.95901639 C32.3902318,8.26229508 32.6369205,9.36885246 33.1549669,10.2295082 C33.3769868,10.6229508 33.722351,10.942623 34.1663907,11.1885246 C34.4870861,11.3606557 34.8324503,11.4590164 35.2024834,11.4590164 C35.7451987,11.4590164 36.2139073,11.2622951 36.6332781,10.8934426 C37.052649,10.5245902 37.3980132,9.93442623 37.644702,9.12295082 C37.842053,8.43442623 37.9407285,7.72131148 37.9407285,6.95901639 C37.9407285,5.68032787 37.6940397,4.62295082 37.2006623,3.73770492 C36.7072848,2.97540984 36.0165563,2.55737705 35.1284768,2.55737705 Z"></path>
                            <path d="M41.9124172,13.5491803 L41.9124172,0.467213115 L46.5995033,0.467213115 C47.5369205,0.467213115 48.2523179,0.56557377 48.7456954,0.737704918 C49.4857616,0.983606557 50.0284768,1.40163934 50.3738411,1.99180328 C50.6945364,2.50819672 50.8425497,3.04918033 50.8425497,3.68852459 C50.8425497,4.96721311 50.2258278,5.90163934 48.9677152,6.49180328 C50.5711921,7.03278689 51.360596,8.1147541 51.360596,9.73770492 C51.360596,11.1639344 50.8178808,12.2213115 49.7571192,12.9344262 C49.0910596,13.3770492 48.1783113,13.5983607 47.0682119,13.5983607 L41.9124172,13.5983607 L41.9124172,13.5491803 Z M44.7493377,5.75409836 L46.0074503,5.75409836 C46.6981788,5.75409836 47.1915563,5.6557377 47.4875828,5.43442623 C47.8822848,5.13934426 48.0796358,4.72131148 48.0796358,4.18032787 C48.0796358,3.59016393 47.832947,3.17213115 47.3642384,2.90163934 C47.1175497,2.75409836 46.6488411,2.68032787 46.0074503,2.68032787 L44.7493377,2.68032787 L44.7493377,5.75409836 Z M44.7493377,11.3114754 L46.2788079,11.3114754 C47.0682119,11.3114754 47.635596,11.1885246 47.9562914,10.9180328 C48.3756623,10.5983607 48.5730132,10.1311475 48.5730132,9.49180328 C48.5730132,8.77868852 48.3016556,8.26229508 47.7589404,7.96721311 C47.438245,7.79508197 46.9201987,7.69672131 46.1801325,7.69672131 L44.7740066,7.69672131 L44.7740066,11.3114754 L44.7493377,11.3114754 Z"></path>
                            <polygon points="52.544702 13.5491803 52.544702 0.467213115 55.3569536 0.467213115 55.3569536 13.5491803 52.544702 13.5491803"></polygon>
                            <polygon points="57.0097682 13.5491803 57.0097682 0.467213115 59.8220199 0.467213115 59.8220199 11.1147541 64.9778146 11.1147541 64.9778146 13.5491803"></polygon>
                            <polygon points="66.1125828 13.5491803 66.1125828 0.467213115 74.4753311 0.467213115 74.4753311 2.85245902 68.9248344 2.85245902 68.9248344 5.6557377 74.0066225 5.6557377 74.0066225 7.94262295 68.9248344 7.94262295 68.9248344 11.1639344 74.5986755 11.1639344 74.5986755 13.5491803"></polygon>
                        </g>
                        <g transform="translate(8.387417, 15.983607)" id="Shape">
                            <polygon points="0.0246688742 13.4262295 0.0246688742 0.344262295 7.96804636 0.344262295 7.96804636 2.7295082 2.81225166 2.7295082 2.81225166 5.77868852 7.27731788 5.77868852 7.27731788 8.06557377 2.81225166 8.06557377 2.81225166 13.4262295"></polygon>
                            <path d="M13.9379139,0.0491803279 C15.4427152,0.0491803279 16.7008278,0.614754098 17.7122517,1.74590164 C18.8470199,3.02459016 19.4390728,4.74590164 19.4390728,6.90983607 C19.4390728,8.75409836 18.9950331,10.3032787 18.1316225,11.557377 C17.6135762,12.295082 16.9721854,12.8606557 16.1827815,13.2540984 C15.492053,13.5983607 14.702649,13.7704918 13.8392384,13.7704918 C11.9890728,13.7704918 10.5336093,13.0081967 9.49751656,11.5081967 C8.65877483,10.3032787 8.23940397,8.77868852 8.23940397,6.93442623 C8.23940397,4.7704918 8.78211921,3.07377049 9.89221854,1.8442623 C10.9283113,0.639344262 12.2850993,0.0491803279 13.9379139,0.0491803279 Z M13.8145695,2.45901639 C12.9758278,2.45901639 12.3097682,2.87704918 11.8410596,3.66393443 C11.3230132,4.54918033 11.0763245,5.60655738 11.0763245,6.86065574 C11.0763245,8.16393443 11.3230132,9.2704918 11.8410596,10.1311475 C12.0630795,10.5245902 12.4084437,10.8442623 12.8524834,11.0901639 C13.1731788,11.2622951 13.518543,11.3606557 13.8885762,11.3606557 C14.4312914,11.3606557 14.9,11.1639344 15.3193709,10.795082 C15.7387417,10.4262295 16.084106,9.83606557 16.3307947,9.02459016 C16.5281457,8.33606557 16.6268212,7.62295082 16.6268212,6.86065574 C16.6268212,5.58196721 16.3801325,4.52459016 15.886755,3.63934426 C15.3933775,2.85245902 14.702649,2.45901639 13.8145695,2.45901639 Z"></path>
                            <path d="M20.6231788,13.4262295 L20.6231788,0.344262295 L25.6556291,0.344262295 C26.9877483,0.344262295 27.9991722,0.639344262 28.7145695,1.20491803 C29.5533113,1.86885246 29.9480132,2.80327869 29.9480132,3.98360656 C29.9480132,4.96721311 29.6519868,5.80327869 29.0846026,6.49180328 C28.8379139,6.78688525 28.4925497,7.03278689 28.0731788,7.2295082 C28.615894,7.40163934 29.010596,7.72131148 29.3066225,8.23770492 C29.5039735,8.53278689 29.6273179,9 29.7259934,9.59016393 C29.7753311,9.81147541 29.8246689,10.4508197 29.8986755,11.557377 C29.9480132,12.2459016 30.0220199,12.7131148 30.1206954,12.9344262 C30.1700331,13.057377 30.2440397,13.2295082 30.3673841,13.4016393 L27.456457,13.4016393 C27.3577815,13.1803279 27.3084437,12.9344262 27.259106,12.6639344 C27.2344371,12.5163934 27.1850993,11.9508197 27.1357616,10.9672131 C27.061755,10.057377 26.9384106,9.46721311 26.7903974,9.14754098 C26.5930464,8.7295082 26.2970199,8.45901639 25.9023179,8.33606557 C25.7049669,8.28688525 25.4089404,8.23770492 25.0389073,8.23770492 L23.4354305,8.23770492 L23.4354305,13.3770492 L20.6231788,13.3770492 L20.6231788,13.4262295 Z M23.4354305,6.17213115 L24.9895695,6.17213115 C25.8529801,6.17213115 26.4203642,6 26.7410596,5.63114754 C27.0124172,5.31147541 27.1604305,4.89344262 27.1604305,4.32786885 C27.1604305,3.66393443 26.9384106,3.17213115 26.469702,2.85245902 C26.1983444,2.6557377 25.7296358,2.58196721 25.0389073,2.58196721 L23.4354305,2.58196721 L23.4354305,6.17213115 Z"></path>
                            <path d="M34.1910596,13.4262295 L34.1910596,0.344262295 L38.8781457,0.344262295 C39.8155629,0.344262295 40.5309603,0.442622951 41.0243377,0.614754098 C41.764404,0.860655738 42.3071192,1.27868852 42.6524834,1.86885246 C42.9731788,2.3852459 43.1211921,2.92622951 43.1211921,3.56557377 C43.1211921,4.8442623 42.5044702,5.77868852 41.2463576,6.36885246 C42.8498344,6.90983607 43.6392384,7.99180328 43.6392384,9.6147541 C43.6392384,11.0409836 43.0965232,12.0983607 42.0357616,12.8114754 C41.369702,13.2540984 40.4569536,13.4754098 39.3468543,13.4754098 L34.1910596,13.4754098 L34.1910596,13.4262295 Z M37.0033113,5.63114754 L38.2614238,5.63114754 C38.9521523,5.63114754 39.4455298,5.53278689 39.7415563,5.31147541 C40.1362583,5.01639344 40.3336093,4.59836066 40.3336093,4.05737705 C40.3336093,3.46721311 40.0869205,3.04918033 39.6182119,2.77868852 C39.3715232,2.63114754 38.9028146,2.55737705 38.2614238,2.55737705 L37.0033113,2.55737705 L37.0033113,5.63114754 Z M37.0033113,11.1885246 L38.5327815,11.1885246 C39.3221854,11.1885246 39.8895695,11.0655738 40.2102649,10.795082 C40.6296358,10.4754098 40.8269868,10.0081967 40.8269868,9.36885246 C40.8269868,8.6557377 40.5556291,8.13934426 40.0129139,7.8442623 C39.6922185,7.67213115 39.1741722,7.57377049 38.434106,7.57377049 L37.0033113,7.57377049 L37.0033113,11.1885246 Z"></path>
                            <path d="M44.6753311,0.344262295 L47.3642384,0.344262295 L47.3642384,7.96721311 C47.3642384,9.22131148 47.5369205,10.0819672 47.8822848,10.5737705 C48.2523179,11.0901639 48.819702,11.3606557 49.5844371,11.3606557 C50.4231788,11.3606557 50.9905629,11.0163934 51.2865894,10.3032787 C51.5086093,9.81147541 51.6072848,9.04918033 51.6072848,7.96721311 L51.6072848,0.368852459 L54.4195364,0.368852459 L54.4195364,7.8442623 C54.4195364,9.02459016 54.3455298,9.90983607 54.1728477,10.5245902 C53.8768212,11.557377 53.3587748,12.3688525 52.6187086,12.9344262 C51.8786424,13.5 50.8425497,13.7704918 49.5350993,13.7704918 C47.6602649,13.7704918 46.3034768,13.1311475 45.489404,11.8770492 C45.1440397,11.3114754 44.897351,10.647541 44.7740066,9.8852459 C44.7,9.39344262 44.6506623,8.70491803 44.6506623,7.81967213 L44.6506623,0.344262295 L44.6753311,0.344262295 Z"></path>
                            <path d="M55.3076159,9.6147541 L58.1445364,9.6147541 C58.218543,10.1311475 58.3418874,10.5 58.4899007,10.7459016 C58.8352649,11.2622951 59.3039735,11.5081967 59.9206954,11.5081967 C60.4880795,11.5081967 60.9074503,11.3360656 61.2281457,10.9918033 C61.4995033,10.6967213 61.6228477,10.3278689 61.6228477,9.8852459 C61.6228477,9.36885246 61.4008278,8.95081967 60.981457,8.60655738 C60.784106,8.43442623 60.5127483,8.28688525 60.192053,8.16393443 C60.0933775,8.1147541 59.7726821,8.01639344 59.2299669,7.81967213 C58.1445364,7.45081967 57.3798013,7.05737705 56.8864238,6.68852459 C55.9243377,5.92622951 55.4556291,4.94262295 55.4556291,3.73770492 C55.4556291,2.68032787 55.8009934,1.8442623 56.467053,1.18032787 C57.2071192,0.442622951 58.2432119,0.0983606557 59.5506623,0.0983606557 C61.1788079,0.0983606557 62.4122517,0.663934426 63.2509934,1.7704918 C63.6456954,2.28688525 63.8923841,2.97540984 64.0157285,3.83606557 L61.2774834,3.83606557 C61.2034768,3.31967213 61.0554636,2.97540984 60.8087748,2.7295082 C60.5127483,2.45901639 60.0933775,2.33606557 59.5753311,2.33606557 C59.1312914,2.33606557 58.7859272,2.43442623 58.5392384,2.6557377 C58.2432119,2.90163934 58.0951987,3.22131148 58.0951987,3.66393443 C58.0951987,4.1557377 58.3172185,4.54918033 58.7365894,4.8442623 C59.0572848,5.06557377 59.6986755,5.33606557 60.6360927,5.6557377 C61.7461921,6.02459016 62.6096026,6.44262295 63.2016556,6.90983607 C64.0897351,7.62295082 64.5337748,8.55737705 64.5337748,9.73770492 C64.5337748,10.9180328 64.114404,11.9016393 63.3003311,12.6393443 C62.4369205,13.4016393 61.3021523,13.795082 59.8960265,13.795082 C58.1938742,13.795082 56.9357616,13.1557377 56.0970199,11.8770492 C55.6529801,11.1885246 55.4062914,10.4508197 55.3076159,9.6147541 Z"></path>
                            <polygon points="65.5451987 13.4262295 65.5451987 0.344262295 68.3574503 0.344262295 68.3574503 13.4262295"></polygon>
                            <polygon points="70.0102649 13.4262295 70.0102649 0.344262295 72.8471854 0.344262295 76.9668874 8.75409836 76.9668874 0.344262295 79.6804636 0.344262295 79.6804636 13.4262295 76.8682119 13.4262295 72.7238411 5.01639344 72.7238411 13.4262295"></polygon>
                            <polygon points="81.3332781 13.4262295 81.3332781 0.344262295 89.6960265 0.344262295 89.6960265 2.7295082 84.1455298 2.7295082 84.1455298 5.53278689 89.2273179 5.53278689 89.2273179 7.81967213 84.1455298 7.81967213 84.1455298 11.0409836 89.8193709 11.0409836 89.8193709 13.4262295"></polygon>
                            <path d="M90.5594371,9.6147541 L93.3963576,9.6147541 C93.4703642,10.1311475 93.5937086,10.5 93.7417219,10.7459016 C94.0870861,11.2622951 94.5557947,11.5081967 95.1725166,11.5081967 C95.7399007,11.5081967 96.1592715,11.3360656 96.4799669,10.9918033 C96.7513245,10.6967213 96.8746689,10.3278689 96.8746689,9.8852459 C96.8746689,9.36885246 96.652649,8.95081967 96.2332781,8.60655738 C96.0359272,8.43442623 95.7645695,8.28688525 95.4438742,8.16393443 C95.3451987,8.1147541 95.0245033,8.01639344 94.4817881,7.81967213 C93.3963576,7.45081967 92.6316225,7.05737705 92.138245,6.68852459 C91.1761589,5.92622951 90.7074503,4.94262295 90.7074503,3.73770492 C90.7074503,2.68032787 91.0528146,1.8442623 91.7188742,1.18032787 C92.4589404,0.442622951 93.4950331,0.0983606557 94.8024834,0.0983606557 C96.4306291,0.0983606557 97.6640728,0.663934426 98.5028146,1.7704918 C98.8975166,2.28688525 99.1442053,2.97540984 99.2675497,3.83606557 L96.5293046,3.83606557 C96.455298,3.31967213 96.3072848,2.97540984 96.060596,2.7295082 C95.7645695,2.45901639 95.3451987,2.33606557 94.8271523,2.33606557 C94.3831126,2.33606557 94.0377483,2.43442623 93.7910596,2.6557377 C93.4950331,2.90163934 93.3470199,3.22131148 93.3470199,3.66393443 C93.3470199,4.1557377 93.5690397,4.54918033 93.9884106,4.8442623 C94.309106,5.06557377 94.9504967,5.33606557 95.8879139,5.6557377 C96.9980132,6.02459016 97.8614238,6.44262295 98.4534768,6.90983607 C99.3415563,7.62295082 99.785596,8.55737705 99.785596,9.73770492 C99.785596,10.9180328 99.3662252,11.9016393 98.5521523,12.6393443 C97.6887417,13.4016393 96.5539735,13.795082 95.1478477,13.795082 C93.4456954,13.795082 92.1875828,13.1557377 91.3488411,11.8770492 C90.9048013,11.1885246 90.6581126,10.4508197 90.5594371,9.6147541 Z"></path>
                            <path d="M100.180298,9.6147541 L103.017219,9.6147541 C103.091225,10.1311475 103.21457,10.5 103.362583,10.7459016 C103.707947,11.2622951 104.176656,11.5081967 104.793377,11.5081967 C105.360762,11.5081967 105.780132,11.3360656 106.100828,10.9918033 C106.372185,10.6967213 106.49553,10.3278689 106.49553,9.8852459 C106.49553,9.36885246 106.27351,8.95081967 105.854139,8.60655738 C105.656788,8.43442623 105.38543,8.28688525 105.064735,8.16393443 C104.96606,8.1147541 104.645364,8.01639344 104.102649,7.81967213 C103.017219,7.45081967 102.252483,7.05737705 101.759106,6.68852459 C100.79702,5.92622951 100.328311,4.94262295 100.328311,3.73770492 C100.328311,2.68032787 100.673675,1.8442623 101.339735,1.18032787 C102.079801,0.442622951 103.115894,0.0983606557 104.423344,0.0983606557 C106.05149,0.0983606557 107.284934,0.663934426 108.123675,1.7704918 C108.518377,2.28688525 108.765066,2.97540984 108.888411,3.83606557 L106.150166,3.83606557 C106.076159,3.31967213 105.928146,2.97540984 105.681457,2.7295082 C105.38543,2.45901639 104.96606,2.33606557 104.448013,2.33606557 C104.003974,2.33606557 103.658609,2.43442623 103.411921,2.6557377 C103.115894,2.90163934 102.967881,3.22131148 102.967881,3.66393443 C102.967881,4.1557377 103.189901,4.54918033 103.609272,4.8442623 C103.929967,5.06557377 104.571358,5.33606557 105.508775,5.6557377 C106.618874,6.02459016 107.482285,6.44262295 108.074338,6.90983607 C108.962417,7.62295082 109.406457,8.55737705 109.406457,9.73770492 C109.406457,10.9180328 108.987086,11.9016393 108.173013,12.6393443 C107.309603,13.4016393 106.174834,13.795082 104.768709,13.795082 C103.066556,13.795082 101.808444,13.1557377 100.969702,11.8770492 C100.525662,11.1885246 100.278974,10.4508197 100.180298,9.6147541 Z"></path>
                        </g>
                        <rect id="Rectangle-path" x="0.0740066225" y="0.368852459" width="1" height="29.0901639"></rect>
                    </g>
                </g>
            </g>
        </g>
    </g>
</svg>