<?xml version="1.0" encoding="UTF-8"?>
<svg width="52px" height="52px" viewBox="0 0 52 52" version="1.1" xmlns="http://www.w3.org/2000/svg" xmlns:xlink="http://www.w3.org/1999/xlink">
    <!-- Generator: Sketch 51.3 (57544) - http://www.bohemiancoding.com/sketch -->
    <title>T</title>
    <desc>Created with Sketch.</desc>
    <defs></defs>
    <g id="Symbols" stroke="none" stroke-width="1" fill="none" fill-rule="evenodd">
        <g id="uNav/Elements/T">
            <g id="T">
                <rect id="Background" fill="#ED008B" x="0" y="0" width="52" height="52"></rect>
                <g id="Icon/Brand/T-Mobile" transform="translate(10.000000, 10.000000)" fill="#FFFFFF">
                    <path d="M17.8367347,4.38461538 L17.8367347,24.6692308 C17.8367347,26.1230769 17.9047619,27.0230769 18.0408163,27.3692308 C18.3129252,28.2 19.1292517,28.6153846 20.5578231,28.6153846 L21.5102041,28.6153846 L21.5102041,30 L10.4897959,30 L10.4897959,28.6153846 L11.4421769,28.6153846 C12.462585,28.6153846 13.1428571,28.4076923 13.5510204,27.9923077 C13.9591837,27.5769231 14.1632653,26.4692308 14.1632653,24.6692308 L14.1632653,4.38461538 L13.3469388,4.38461538 C12.0544218,4.38461538 10.8979592,4.8 9.87755102,5.56153846 C8.31292517,6.73846154 7.42857143,9.02307692 7.2244898,12.4846154 L6,12.4846154 L6.20408163,3 L25.8639456,3 L26,12.4153846 L24.8435374,12.4153846 C24.3673469,8.46923077 23.2108844,5.97692308 21.3741497,5.00769231 C20.5578231,4.59230769 19.537415,4.38461538 18.4489796,4.38461538 L17.8367347,4.38461538 Z M6,14.9076923 L11.5782313,14.9076923 L11.5782313,20.5846154 L6,20.5846154 L6,14.9076923 Z M20.4217687,14.9076923 L26,14.9076923 L26,20.5846154 L20.4217687,20.5846154 L20.4217687,14.9076923 Z" id="Shape"></path>
                </g>
            </g>
        </g>
    </g>
</svg>