<svg xmlns="http://www.w3.org/2000/svg" width="205" height="79" fill="none" viewBox="0 0 205 79">
    <path fill="#D8D8D8" d="M51.2 59.9H15v5h36.2v-5zM51.2 45.8H15v5h36.2v-5z"/>
    <path fill="#D8D8D8" d="M44.625 0c.66 0 1.294.261 1.762.727l17.875 17.76c.472.47.738 1.108.738 1.774V76.5c0 1.38-1.12 2.5-2.5 2.5h-60C1.12 79 0 77.88 0 76.5v-74C0 1.12 1.12 0 2.5 0h42.125zM42 5H5v69h55V23H44.5c-1.325 0-2.41-1.032-2.495-2.336L42 20.5V5zm14.677 13L47 8.384V18h9.677zM121.2 59.9H85v5h36.2v-5z"/>
    <path fill="#E20074" d="M190.7 59.9h-36.2v5h36.2v-5z"/>
    <path fill="#D8D8D8" d="M121.2 45.8H85v5h36.2v-5z"/>
    <path fill="#E20074" d="M190.7 45.8h-36.2v5h36.2v-5z"/>
    <path fill="#D8D8D8" d="M114.625 0c.66 0 1.294.261 1.762.727l17.875 17.76c.472.47.738 1.108.738 1.774V76.5c0 1.38-1.119 2.5-2.5 2.5h-60c-1.38 0-2.5-1.12-2.5-2.5v-74C70 1.12 71.12 0 72.5 0h42.125zM112 5H75v69h55V23h-15.5c-1.325 0-2.41-1.032-2.495-2.336L112 20.5V5zm14.677 13L117 8.384V18h9.677z"/>
    <path fill="#E20074" d="M160.244 18.883h-3.568c.045-1.404.414-2.557 1.107-3.46 1.012-1.32 2.511-1.982 4.498-1.982 1.65 0 2.967.479 3.951 1.436.957.939 1.436 2.156 1.436 3.65 0 1.158-.31 2.151-.93 2.98-.328.438-.802.794-1.422 1.067.73.246 1.317.63 1.764 1.149.757.884 1.135 2.01 1.135 3.377 0 1.65-.547 3.021-1.641 4.115-1.121 1.12-2.62 1.682-4.498 1.682-1.741 0-3.135-.484-4.183-1.45-1.067-.984-1.6-2.37-1.6-4.156h3.596c.009.583.123 1.066.341 1.45.365.637.976.956 1.832.956.721 0 1.281-.255 1.682-.765.419-.529.629-1.222.629-2.078 0-.875-.237-1.555-.711-2.038-.428-.437-1.126-.656-2.092-.656h-.547v-2.693h.862c.62 0 1.139-.233 1.558-.697.429-.474.643-1.126.643-1.956 0-.72-.187-1.285-.561-1.695-.355-.4-.834-.601-1.435-.601-1.185 0-1.8.788-1.846 2.365z"/>
    <path fill="#E20074" d="M184.625 0c.66 0 1.294.261 1.762.727l17.875 17.76c.472.47.738 1.108.738 1.774V76.5c0 1.38-1.119 2.5-2.5 2.5h-60c-1.381 0-2.5-1.12-2.5-2.5v-74c0-1.38 1.119-2.5 2.5-2.5h42.125zM182 5h-37v69h55V23h-15.5c-1.325 0-2.41-1.032-2.495-2.336L182 20.5V5zm14.677 13L187 8.384V18h9.677z"/>
    <path fill="#D8D8D8" d="M17.709 32.5V19.375c-.365.337-.797.574-1.299.71-.337.083-.861.128-1.572.138v-2.817c1.276-.018 2.21-.383 2.803-1.093.4-.484.71-1.308.93-2.475h2.816V32.5h-3.678zM97.873 29.205V32.5H86.32c.019-1.95.342-3.578.971-4.88.51-1.04 1.313-2.02 2.406-2.94.392-.328 1.153-.898 2.284-1.71.966-.701 1.626-1.362 1.982-1.982.355-.61.533-1.271.533-1.982 0-.629-.164-1.144-.492-1.545-.392-.501-.934-.752-1.627-.752-.793 0-1.376.41-1.75 1.23-.173.374-.283.83-.328 1.368h-3.637c.1-1.559.579-2.871 1.436-3.938 1.057-1.303 2.488-1.955 4.293-1.955 1.759 0 3.158.533 4.197 1.6.957.975 1.435 2.237 1.435 3.787 0 1.659-.533 3.067-1.6 4.224-.655.711-1.708 1.564-3.157 2.557-1.176.811-1.974 1.472-2.393 1.982-.401.51-.629 1.058-.684 1.641h7.684z"/>
</svg>
