<svg xmlns="http://www.w3.org/2000/svg" width="200" height="200" fill="none" viewBox="0 0 200 200">
    <path fill="#fff" d="M0 0H200V200H0z"/>
    <g clip-path="url(#prefix__clip0)">
        <path fill="#000" d="M27.815 29.8v-9.16h-1.917v9.16h1.917zm15.089-6.989h-1.835l-1.04 5.06h-.115l-1.231-5.06h-1.765l-1.225 5.06h-.114l-1.041-5.06h-1.873l1.866 6.989h1.943l1.237-4.875h.115l1.25 4.875h1.968l1.86-6.989zm3.047 7.097c.907 0 1.67-.387 2.03-1.035h.115v.927h1.79v-4.773c0-1.492-1.047-2.368-2.9-2.368-1.759 0-2.946.806-3.067 2.088h1.702c.152-.438.596-.673 1.263-.673.761 0 1.18.35 1.18.953v.577l-1.694.102c-1.74.101-2.71.838-2.71 2.1 0 1.277.945 2.102 2.29 2.102zm.61-1.352c-.642 0-1.093-.324-1.093-.863 0-.515.387-.813 1.18-.864l1.416-.095v.52c0 .737-.647 1.302-1.504 1.302zM51.7 29.8h1.848v-4.044c0-.945.527-1.555 1.384-1.555.876 0 1.288.514 1.288 1.498V29.8h1.847v-4.52c0-1.669-.837-2.621-2.393-2.621-1.034 0-1.745.489-2.069 1.276h-.114V22.81h-1.79V29.8zm8.69-8.658v1.733H59.3v1.402h1.092v3.638c0 1.358.672 1.91 2.374 1.91.355 0 .698-.038.926-.082v-1.365c-.177.02-.304.032-.545.032-.629 0-.908-.292-.908-.92v-3.212h1.453v-1.403H62.24v-1.733h-1.847zm8.722 0v1.733h-1.091v1.402h1.091v3.638c0 1.358.673 1.91 2.374 1.91.356 0 .699-.038.927-.082v-1.365c-.178.02-.305.032-.546.032-.628 0-.908-.292-.908-.92v-3.212h1.454v-1.403H70.96v-1.733h-1.847zm7.897 8.804c2.152 0 3.447-1.358 3.447-3.644 0-2.266-1.314-3.643-3.447-3.643s-3.447 1.384-3.447 3.643c0 2.28 1.295 3.644 3.447 3.644zm0-1.46c-.99 0-1.55-.8-1.55-2.184 0-1.37.566-2.177 1.55-2.177.977 0 1.549.806 1.549 2.177 0 1.384-.565 2.184-1.55 2.184zm6.1 1.473c.685 0 1.123-.457 1.123-1.08 0-.622-.438-1.072-1.123-1.072-.68 0-1.124.45-1.124 1.073 0 .622.445 1.079 1.124 1.079zm4.52 0c.685 0 1.123-.457 1.123-1.08 0-.622-.438-1.072-1.124-1.072-.679 0-1.123.45-1.123 1.073 0 .622.444 1.079 1.123 1.079zm4.519 0c.686 0 1.123-.457 1.123-1.08 0-.622-.438-1.072-1.123-1.072-.68 0-1.124.45-1.124 1.073 0 .622.445 1.079 1.124 1.079z"/>
    </g>
    <path stroke="#D8D8D8" stroke-width="3" d="M170.672 59.505l4.155 4.162-4.155 4.161" opacity=".536"/>
    <path stroke="#F2F2F2" stroke-linecap="square" d="M50.21 46.981h120.842M50.21 80.7h120.842" opacity=".536"/>
    <path stroke="#E20074" stroke-linecap="square" stroke-width="5" d="M52.83 63.721l89.526.087"/>
    <path fill="#E20074" fill-rule="evenodd" d="M31.257 70.982c.206.205.476.308.746.308s.54-.103.747-.308l6.298-6.284c.181-.18.29-.42.307-.675l.324-4.859c.02-.303-.091-.6-.306-.815-.216-.214-.51-.326-.817-.306l-4.87.324c-.255.017-.496.125-.677.306l-6.299 6.284c-.41.41-.41 1.079 0 1.489l4.547 4.536zm2.498-11.58l4.87-.324.017.017-.329 4.87-6.32 6.284-4.546-4.56 6.308-6.287z" clip-rule="evenodd"/>
    <path fill="#E20074" d="M31.257 70.982l.177-.177-.177.177zm1.493 0l.177.177-.177-.177zm6.298-6.284l-.176-.177.176.177zm.307-.675l.25.017-.25-.017zm.324-4.859l-.25-.016.25.016zm-.306-.815l.177-.176-.177.176zm-.817-.306l.016.25-.016-.25zm-4.87.324l-.017-.25.017.25zm-.677.306l.177.177-.177-.177zm-6.299 6.284l-.176-.177.176.177zm0 1.489l-.176.177.177-.177zm11.916-7.368l.176-.177-.08-.08-.113.008.017.25zm-4.87.324l-.017-.25-.094.007-.066.066.176.177zm4.886-.307l.25.017.007-.114-.08-.08-.177.177zm-.329 4.87l.176.177.067-.066.007-.094-.25-.017zm-6.32 6.284l-.177.176.176.177.177-.176-.176-.177zm-4.546-4.56l-.177-.176-.177.176.177.177.177-.176zm4.556 5.35c-.207 0-.413-.078-.57-.234l-.353.354c.255.254.59.38.923.38v-.5zm.57-.234c-.157.156-.363.235-.57.235v.5c.334 0 .668-.127.924-.381l-.353-.355zm6.298-6.284l-6.297 6.284.353.354 6.297-6.284-.353-.354zm.235-.515c-.014.195-.096.378-.234.515l.352.355c.225-.224.36-.521.38-.836l-.498-.034zm.324-4.858l-.324 4.859.498.033.325-4.859-.5-.033zm-.234-.622c.164.164.25.39.234.622l.499.033c.025-.375-.114-.742-.38-1.008l-.353.353zm-.623-.233c.234-.016.458.069.623.233l.353-.354c-.266-.265-.63-.404-1.01-.378l.033.499zm-4.87.323l4.87-.323-.034-.5-4.87.324.033.5zm-.517.234c.138-.138.321-.22.517-.234l-.034-.499c-.315.022-.613.155-.837.38l.354.353zm-6.3 6.284l6.3-6.284-.353-.354-6.3 6.284.354.354zm.001 1.135c-.313-.313-.313-.822 0-1.135l-.354-.354c-.508.509-.508 1.335.001 1.843l.353-.354zm4.547 4.536l-4.547-4.536-.353.354 4.546 4.536.354-.354zm7.175-11.976l-4.87.323.033.5 4.87-.324-.033-.5zm.21.089l-.017-.017-.353.354.017.017.353-.354zm-.256 5.064l.329-4.87-.5-.034-.328 4.87.499.034zm-6.394 6.444l6.32-6.284-.352-.354-6.32 6.283.352.355zm-4.9-4.56l4.547 4.559.354-.353-4.546-4.559-.354.353zm6.31-6.641l-6.309 6.288.353.354 6.309-6.288-.353-.354z"/>
    <path fill="#E20074" fill-rule="evenodd" d="M33.908 63.8c.3.3.701.465 1.126.465.425 0 .825-.165 1.125-.465.3-.3.466-.698.466-1.122 0-.424-.166-.823-.466-1.123-.6-.599-1.65-.6-2.25 0-.3.3-.466.699-.466 1.123 0 .424.166.823.465 1.122zm.736-1.511c.104-.105.243-.162.39-.162.148 0 .285.057.39.162.105.104.162.242.162.39 0 .146-.057.284-.162.388-.208.208-.57.21-.78 0-.105-.104-.162-.242-.162-.389 0-.147.057-.285.162-.39z" clip-rule="evenodd"/>
    <path fill="#E20074" d="M33.908 63.8l-.176.177.176-.177zm2.251-2.245l.177-.177-.177.177zm-2.25 0l.177.177-.177-.177zm.735.734l.177.177v-.001l-.177-.176zm.78 0l-.178.176.002.002.176-.178zm0 .778l-.176-.178.176.178zm0 0l-.177-.177.176.177zm-.78 0l.177-.177-.001-.001-.176.178zm.39.948c-.359 0-.695-.139-.949-.392l-.353.354c.347.347.81.538 1.302.538v-.5zm.949-.392c-.254.253-.59.392-.95.392v.5c.492 0 .956-.191 1.303-.538l-.353-.354zm.392-.945c0 .357-.139.692-.392.945l.353.354c.347-.346.54-.809.54-1.299h-.5zm-.392-.946c.253.253.392.588.392.946h.5c0-.49-.192-.954-.539-1.3l-.353.354zm-1.897 0c.502-.502 1.394-.501 1.897 0l.353-.354c-.698-.696-1.906-.697-2.604 0l.354.354zm-.393.946c0-.358.14-.693.393-.946l-.354-.354c-.347.346-.54.81-.54 1.3h.5zm.392.945c-.253-.252-.392-.588-.392-.945h-.5c0 .49.192.953.539 1.3l.353-.355zm.949-1.746c-.213 0-.416.083-.567.236l.355.352c.056-.057.13-.088.212-.088v-.5zm.568.236c-.152-.153-.354-.236-.568-.236v.5c.081 0 .155.03.213.088l.355-.352zm.234.565c0-.213-.083-.415-.236-.566l-.352.355c.057.057.088.13.088.211h.5zm-.236.566c.152-.15.236-.352.236-.566h-.5c0 .08-.03.154-.088.211l.352.355zm0 0l-.353-.354.353.354zm-1.133 0c.307.307.829.305 1.133 0l-.354-.353c-.11.11-.314.11-.425 0l-.354.352zm-.235-.566c0 .214.083.416.236.567l.352-.356c-.058-.057-.088-.13-.088-.21h-.5zm.236-.567c-.152.151-.236.353-.236.567h.5c0-.08.03-.154.089-.212l-.353-.355z"/>
    <path fill="#E20074" stroke="#E20074" stroke-width=".5" d="M39.202 59.038c-.133 0-.266-.05-.368-.152-.203-.202-.203-.53 0-.733l2.273-2.267c.203-.203.532-.203.735 0 .203.202.203.53 0 .733l-2.273 2.267c-.101.101-.234.152-.367.152z"/>
    <path stroke="#E20074" stroke-linecap="square" stroke-width="5" d="M52.828 97.773l89.527.087"/>
    <path stroke="#D8D8D8" stroke-width="3" d="M170.672 93.786l4.155 4.161-4.155 4.162" opacity=".536"/>
    <path stroke="#F2F2F2" stroke-linecap="square" d="M50.21 81.262h120.842M50.21 114.98h120.842" opacity=".536"/>
    <path fill="#E20074" d="M39.502 95.391v-1.403H28.357v1.403h11.145zm0 6.953v-4.178H28.357v4.178h11.145zm0-9.76c.391 0 .717.142.978.425.26.26.39.587.39.979v8.356c0 .391-.13.729-.39 1.011-.26.262-.587.392-.978.392H28.357c-.391 0-.717-.13-.977-.392-.261-.282-.392-.62-.392-1.011v-8.356c0-.392.13-.718.392-.98.26-.282.586-.424.977-.424h11.145z"/>
    <path stroke="#E20074" stroke-linecap="square" stroke-width="5" d="M52.828 132.054l89.527.087"/>
    <path stroke="#D8D8D8" stroke-width="3" d="M170.672 128.067l4.155 4.161-4.155 4.161" opacity=".536"/>
    <path stroke="#F2F2F2" stroke-linecap="square" d="M50.21 115.543h120.842M50.21 149.261h120.842" opacity=".536"/>
    <path fill="#E20074" fill-rule="evenodd" d="M40.678 135.957c.138.079.202.212.192.399-.01.187-.093.349-.25.487l-1.445 1.447c-.295.295-.59.295-.885 0l-5.72-5.729c-.708.295-1.46.359-2.256.192-.796-.168-1.489-.547-2.079-1.137-.629-.63-1.022-1.378-1.18-2.245-.157-.866-.038-1.673.355-2.421l2.771 2.717 1.887-1.89-2.712-2.717c.747-.355 1.553-.463 2.417-.325.866.138 1.612.521 2.241 1.151.59.591.969 1.285 1.136 2.083.167.797.103 1.55-.192 2.259l5.72 5.729z" clip-rule="evenodd"/>
    <path stroke="#E20074" stroke-linecap="square" stroke-width="5" d="M52.828 166.335l89.527.087"/>
    <path stroke="#D8D8D8" stroke-width="3" d="M170.672 162.347l4.155 4.162-4.155 4.161" opacity=".536"/>
    <path stroke="#F2F2F2" stroke-linecap="square" d="M50.21 149.823h120.842M50.21 183.542h120.842" opacity=".536"/>
    <path fill="#E20074" fill-rule="evenodd" d="M38.785 165.224v-1.403h-2.77v-2.775h-1.401v2.775h-2.77v1.403h2.77v2.775h1.401v-2.775h2.77zm.717-6.267c.37 0 .69.136.962.408.271.272.407.593.407.963v8.356c0 .37-.136.696-.407.979-.272.283-.592.425-.962.425H31.16c-.37 0-.695-.142-.978-.425-.282-.283-.424-.609-.424-.979v-8.356c0-.37.142-.691.424-.963.283-.272.608-.408.978-.408h8.342zm-11.145 2.775v9.759h9.744v1.371h-9.744c-.37 0-.69-.136-.961-.408-.272-.272-.408-.593-.408-.963v-9.759h1.37z" clip-rule="evenodd"/>
    <defs>
        <clipPath id="prefix__clip0">
            <path fill="#fff" d="M25.6 16.8H174.82399999999998V33.576H25.6z"/>
        </clipPath>
    </defs>
</svg>
