<svg xmlns="http://www.w3.org/2000/svg" width="100" height="100" fill="none" viewBox="0 0 100 100">
    <path fill="#fff" d="M0 0H100V100H0z"/>
    <mask id="prefix__a" fill="#fff">
        <path fill-rule="evenodd" d="M52.7 28.333h8.633c.754.002 1.365.618 1.367 1.379v8.704c-.002.761-.613 1.377-1.367 1.38H52.7c-.754-.003-1.366-.619-1.367-1.38v-8.704c.002-.761.613-1.377 1.367-1.379zM51.138 41.76h7.86c.968 0 1.753.792 1.753 1.769v7.925c0 .977-.785 1.768-1.753 1.768H39.77c-.968 0-1.754-.791-1.754-1.768V32.066c0-.976.786-1.768 1.754-1.768h7.86c.969 0 1.754.792 1.754 1.768v7.926c0 .976.785 1.768 1.754 1.768z" clip-rule="evenodd"/>
    </mask>
    <path fill="#E20074" d="M61.333 28.333l.005-2.2h-.005v2.2zm-8.633 0v-2.2h-.005l.005 2.2zm10 1.379h2.2v-.005l-2.2.005zm0 8.704l2.2.006v-.006h-2.2zm-1.367 1.38v2.2h.005l-.005-2.2zm-8.633 0l-.005 2.2h.005v-2.2zm-1.367-1.38h-2.2v.006l2.2-.006zm0-8.704l-2.2-.005v.005h2.2zm10-3.579H52.7v4.4h8.633v-4.4zm3.567 3.574c-.005-1.955-1.58-3.57-3.562-3.574l-.01 4.4c-.474-.001-.827-.383-.828-.816l4.4-.01zm0 8.71v-8.705h-4.4v8.704h4.4zm-3.562 3.578c1.983-.005 3.557-1.619 3.562-3.573l-4.4-.01c.001-.434.354-.816.828-.817l.01 4.4zm-8.638 0h8.633v-4.4H52.7v4.4zm-3.567-3.573c.004 1.954 1.58 3.568 3.562 3.573l.01-4.4c.474.001.827.383.828.816l-4.4.01zm0-8.71v8.704h4.4v-8.704h-4.4zm3.562-3.579c-1.983.005-3.558 1.619-3.562 3.574l4.4.01c-.001.433-.354.815-.828.816l-.01-4.4zm6.303 13.427h-7.86v4.4h7.86v-4.4zm3.953 3.969c0-2.175-1.753-3.969-3.953-3.969v4.4c-.264 0-.447-.21-.447-.431h4.4zm0 7.925v-7.925h-4.4v7.925h4.4zm-3.953 3.968c2.2 0 3.953-1.794 3.953-3.968h-4.4c0-.221.183-.432.447-.432v4.4zm-19.228 0h19.227v-4.4H39.77v4.4zm-3.954-3.968c0 2.174 1.753 3.968 3.954 3.968v-4.4c.264 0 .447.21.447.432h-4.4zm0-19.388v19.388h4.4V32.066h-4.4zm3.954-3.968c-2.2 0-3.954 1.794-3.954 3.968h4.4c0 .221-.182.432-.446.432v-4.4zm7.86 0h-7.86v4.4h7.86v-4.4zm3.954 3.968c0-2.174-1.753-3.968-3.954-3.968v4.4c-.264 0-.446-.21-.446-.432h4.4zm0 7.926v-7.926h-4.4v7.926h4.4zm-.446-.432c.263 0 .446.21.446.432h-4.4c0 2.174 1.753 3.968 3.954 3.968v-4.4z" mask="url(#prefix__a)"/>
    
</svg>
