<svg xmlns="http://www.w3.org/2000/svg" width="230" height="230" fill="none" viewBox="0 0 230 230">
    <g filter="url(#prefix__filter0_d)">
        <path fill="#fff" d="M15 115H115V215H15z"/>
    </g>
    <mask id="prefix__a" fill="#fff">
        <path fill-rule="evenodd" d="M67.7 143.333h8.633c.754.002 1.365.618 1.367 1.379v8.705c-.002.76-.613 1.377-1.367 1.378H67.7c-.754-.001-1.365-.618-1.367-1.378v-8.705c.002-.761.613-1.377 1.367-1.379zm-1.562 13.427h7.86c.968 0 1.753.792 1.753 1.769v7.925c0 .977-.785 1.769-1.753 1.769H54.77c-.968 0-1.753-.792-1.753-1.769v-19.387c0-.977.785-1.769 1.753-1.769h7.86c.969 0 1.754.792 1.754 1.769v7.925c0 .977.785 1.768 1.754 1.768z" clip-rule="evenodd"/>
    </mask>
    <path fill="#E20074" d="M76.333 143.333l.005-2.2h-.005v2.2zm-8.633 0v-2.2h-.005l.005 2.2zm10 1.379h2.2v-.005l-2.2.005zm0 8.705l2.2.005v-.005h-2.2zm-1.367 1.378v2.2h.005l-.005-2.2zm-8.633 0l-.005 2.2h.005v-2.2zm-1.367-1.378h-2.2v.005l2.2-.005zm0-8.705l-2.2-.005v.005h2.2zm10-3.579H67.7v4.4h8.633v-4.4zm3.567 3.574c-.004-1.955-1.58-3.569-3.562-3.574l-.01 4.4c-.474-.001-.827-.383-.828-.816l4.4-.01zm0 8.71v-8.705h-4.4v8.705h4.4zm-3.562 3.578c1.983-.004 3.558-1.619 3.562-3.573l-4.4-.011c.001-.433.354-.814.828-.816l.01 4.4zm-8.638 0h8.633v-4.4H67.7v4.4zm-3.567-3.573c.004 1.954 1.58 3.569 3.562 3.573l.01-4.4c.474.002.827.383.828.816l-4.4.011zm0-8.71v8.705h4.4v-8.705h-4.4zm3.562-3.579c-1.982.005-3.558 1.619-3.562 3.574l4.4.01c-.001.433-.354.815-.828.816l-.01-4.4zm6.303 13.427h-7.86v4.4h7.86v-4.4zm3.953 3.969c0-2.175-1.753-3.969-3.953-3.969v4.4c-.264 0-.447-.21-.447-.431h4.4zm0 7.925v-7.925h-4.4v7.925h4.4zm-3.953 3.969c2.2 0 3.953-1.794 3.953-3.969h-4.4c0-.221.183-.431.447-.431v4.4zm-19.228 0h19.228v-4.4H54.77v4.4zm-3.953-3.969c0 2.175 1.753 3.969 3.953 3.969v-4.4c.264 0 .447.21.447.431h-4.4zm0-19.387v19.387h4.4v-19.387h-4.4zm3.953-3.969c-2.2 0-3.953 1.794-3.953 3.969h4.4c0 .221-.183.431-.447.431v-4.4zm7.86 0h-7.86v4.4h7.86v-4.4zm3.954 3.969c0-2.175-1.753-3.969-3.954-3.969v4.4c-.263 0-.446-.21-.446-.431h4.4zm0 7.925v-7.925h-4.4v7.925h4.4zm-.446-.432c.263 0 .446.211.446.432h-4.4c0 2.174 1.753 3.968 3.954 3.968v-4.4z" mask="url(#prefix__a)"/>
    <path fill="#000" d="M44.385 192.333h1.597l-2.446-7.046h-1.734l-2.446 7.046h1.48l.542-1.709h2.475l.532 1.709zm-1.806-5.615h.088l.874 2.803h-1.846l.884-2.803zm5.544-1.431v7.046h2.774c2.11 0 3.305-1.289 3.305-3.569 0-2.212-1.21-3.477-3.305-3.477h-2.774zm1.475 1.216h1.064c1.28 0 2.036.83 2.036 2.285 0 1.509-.732 2.329-2.036 2.329h-1.064v-4.614zm6.946-1.216v7.046h2.773c2.11 0 3.306-1.289 3.306-3.569 0-2.212-1.211-3.477-3.306-3.477h-2.773zm1.474 1.216h1.065c1.28 0 2.036.83 2.036 2.285 0 1.509-.733 2.329-2.036 2.329h-1.065v-4.614zm13.545-1.396c-2.075 0-3.393 1.416-3.393 3.701 0 2.28 1.299 3.706 3.393 3.706 2.08 0 3.389-1.426 3.389-3.706 0-2.28-1.313-3.701-3.389-3.701zm0 1.25c1.143 0 1.88.952 1.88 2.451 0 1.494-.732 2.456-1.88 2.456-1.162 0-1.884-.962-1.884-2.456 0-1.499.737-2.451 1.884-2.451zm7.141 5.976v-4.507h.088l3.252 4.507h1.221v-7.046h-1.411v4.488h-.088l-3.242-4.488h-1.23v7.046h1.41zm6.898-1.948c.053 1.304 1.142 2.129 2.822 2.129 1.767 0 2.856-.869 2.856-2.275 0-1.089-.61-1.7-2.026-2.002l-.85-.181c-.825-.181-1.162-.44-1.162-.884 0-.552.489-.908 1.226-.908.713 0 1.23.376 1.299.952h1.386c-.044-1.245-1.142-2.109-2.695-2.109-1.626 0-2.695.869-2.695 2.182 0 1.07.63 1.729 1.914 2.002l.918.2c.864.191 1.216.459 1.216.923 0 .547-.542.933-1.309.933-.83 0-1.406-.376-1.475-.962h-1.425z"/>
    <g filter="url(#prefix__filter1_d)">
        <path fill="#fff" d="M115 15H215V115H115z"/>
    </g>
    <path fill="#000" d="M136.118 90.784h-3.193v-1.782h3.012v-1.133h-3.012v-1.7h3.193v-1.215h-4.668V92h4.668v-1.216zm5.574 1.397c.449 0 .869-.069 1.24-.196l.537.713h1.372l-.937-1.255c.747-.61 1.171-1.65 1.171-2.968 0-2.286-1.313-3.702-3.383-3.702-2.071 0-3.394 1.416-3.394 3.702 0 2.3 1.309 3.706 3.394 3.706zm.005-1.201c-1.172 0-1.929-.962-1.929-2.505 0-1.534.757-2.505 1.924-2.505 1.162 0 1.914.971 1.914 2.505 0 .796-.2 1.435-.562 1.826l-.473-.62h-1.377l.937 1.245c-.141.039-.283.053-.434.053zm7.185-6.026h-1.475v4.614c0 1.558 1.152 2.613 2.954 2.613 1.802 0 2.949-1.055 2.949-2.613v-4.614h-1.474v4.473c0 .903-.532 1.489-1.475 1.489-.942 0-1.479-.586-1.479-1.49v-4.472zM157.434 92v-7.046h-1.475V92h1.475zm2.649-7.046V92h1.475v-2.222h1.391c1.485 0 2.515-.967 2.515-2.402 0-1.455-.991-2.422-2.442-2.422h-2.939zm1.475 1.172h1.074c.849 0 1.333.434 1.333 1.255 0 .8-.493 1.24-1.338 1.24h-1.069v-2.495zM175.222 92v-7.046h-1.733l-1.953 4.859h-.088l-1.948-4.859h-1.739V92h1.367v-4.77h.079l1.796 4.423h.982l1.792-4.424h.078V92h1.367zm7.317-1.216h-3.193v-1.782h3.013v-1.133h-3.013v-1.7h3.193v-1.215h-4.668V92h4.668v-1.216zM186.443 92v-4.507h.088L189.783 92h1.221v-7.046h-1.412v4.487h-.087l-3.243-4.487h-1.23V92h1.411zm10.398 0v-5.83h2.114v-1.216h-5.703v1.216h2.114V92h1.475z"/>
    <path fill="#E20074" fill-rule="evenodd" d="M160.333 42.5h8.458c1.329 0 2.416 1.149 2.416 2.553v21.06c0 1.404-1.087 2.553-2.416 2.553h-8.458c-1.33 0-2.417-1.15-2.417-2.553v-21.06c0-1.404 1.087-2.553 2.417-2.553zm8.458 25.528c.999 0 1.812-.86 1.812-1.915v-21.06c0-1.056-.813-1.915-1.812-1.915h-.605c-.166 0-.302.144-.302.32v.319c0 .352-.27.638-.604.638h-5.437c-.334 0-.604-.286-.604-.639v-.319c0-.175-.136-.319-.302-.319h-.604c-1 0-1.813.86-1.813 1.915v21.06c0 1.056.813 1.915 1.813 1.915h8.458z" clip-rule="evenodd"/>
    <path fill="#E20074" d="M168.791 41.5h-8.458v2h8.458v-2zm3.416 3.553c0-1.904-1.484-3.553-3.416-3.553v2c.725 0 1.416.649 1.416 1.553h2zm0 21.06v-21.06h-2v21.06h2zm-3.416 3.553c1.932 0 3.416-1.65 3.416-3.553h-2c0 .904-.691 1.553-1.416 1.553v2zm-8.458 0h8.458v-2h-8.458v2zm-3.417-3.553c0 1.904 1.484 3.553 3.417 3.553v-2c-.726 0-1.417-.649-1.417-1.553h-2zm0-21.06v21.06h2v-21.06h-2zm3.417-3.553c-1.933 0-3.417 1.649-3.417 3.553h2c0-.904.691-1.553 1.417-1.553v-2zm9.27 24.613c0 .556-.416.915-.812.915v2c1.602 0 2.812-1.36 2.812-2.915h-2zm0-21.06v21.06h2v-21.06h-2zm-.812-.915c.396 0 .812.36.812.915h2c0-1.556-1.21-2.915-2.812-2.915v2zm-.605 0h.605v-2h-.605v2zm.698-.68c0 .324-.26.68-.698.68v-2c-.769 0-1.302.644-1.302 1.32h2zm0 .319v-.32h-2v.32h2zm-1.604 1.638c.937 0 1.604-.786 1.604-1.639h-2c0-.147.127-.361.396-.361v2zm-5.437 0h5.437v-2h-5.437v2zm-1.604-1.639c0 .853.667 1.639 1.604 1.639v-2c.27 0 .396.214.396.361h-2zm0-.319v.32h2v-.32h-2zm.698.681c-.437 0-.698-.356-.698-.68h2c0-.676-.533-1.32-1.302-1.32v2zm-.604 0h.604v-2h-.604v2zm-.813.915c0-.556.416-.915.813-.915v-2c-1.603 0-2.813 1.36-2.813 2.915h2zm0 21.06v-21.06h-2v21.06h2zm.813.915c-.397 0-.813-.36-.813-.915h-2c0 1.556 1.21 2.915 2.813 2.915v-2zm8.458 0h-8.458v2h8.458v-2z"/>
    <g filter="url(#prefix__filter2_d)">
        <path fill="#fff" d="M15 15H115V115H15z"/>
    </g>
    <path fill="#E20074" fill-rule="evenodd" d="M71.24 47.625c-.003-.492.373-.906.87-.957.033-.002.067-.002.1 0h6.47c.536 0 .97.429.97.957v19.783c0 .528-.434.957-.97.957h-6.47c-.535 0-.97-.428-.97-.957V47.625zm6.47.957h-4.529v17.869h4.529V48.582zm-15.85 6.382c-.537 0-.971.428-.971.957v11.487c0 .528.434.957.97.957h6.47c.536 0 .97-.428.97-.957V55.92c.003-.492-.373-.906-.869-.957-.034-.002-.067-.002-.101 0h-6.47zm5.498 1.914H62.83v9.573h4.528v-9.573zm-15.85 2.553c-.536 0-.97.428-.97.957v7.02c0 .528.434.957.97.957h6.47c.535 0 .97-.429.97-.957v-7.02c.002-.492-.373-.906-.87-.957-.033-.002-.067-.002-.1 0h-6.47zm5.499 1.915h-4.53v5.105h4.53v-5.105z" clip-rule="evenodd"/>
    <path fill="#000" d="M51.01 85.287v7.046h1.475v-2.221h1.392c1.484 0 2.514-.967 2.514-2.403 0-1.455-.991-2.422-2.441-2.422h-2.94zm1.475 1.172h1.074c.85 0 1.333.435 1.333 1.255 0 .8-.493 1.24-1.338 1.24h-1.07V86.46zm10.813 4.634h-3.135v-5.806H58.69v7.046h4.609v-1.24zm6.804 1.24H71.7l-2.447-7.046H67.52l-2.446 7.046h1.48l.541-1.709h2.476l.532 1.71zm-1.806-5.615h.087l.874 2.803h-1.845l.883-2.803zm6.955 5.615v-4.507h.088l3.252 4.507h1.22v-7.046h-1.41v4.488h-.088l-3.243-4.488h-1.23v7.046h1.411z"/>
    <g filter="url(#prefix__filter3_d)">
        <path fill="#fff" d="M115 115H215V215H115z"/>
    </g>
    <path fill="#000" d="M141.242 185.287v7.046h1.475v-2.221h1.391c1.485 0 2.515-.967 2.515-2.403 0-1.455-.991-2.422-2.441-2.422h-2.94zm1.475 1.172h1.074c.85 0 1.333.435 1.333 1.255 0 .801-.493 1.24-1.338 1.24h-1.069v-2.495zm7.678 3.296h1.206l1.314 2.578h1.669l-1.484-2.798c.811-.317 1.279-1.098 1.279-2.002 0-1.391-.952-2.246-2.5-2.246h-2.959v7.046h1.475v-2.578zm0-3.315h1.279c.733 0 1.192.429 1.192 1.113 0 .698-.435 1.103-1.177 1.103h-1.294v-2.216zm9.49-1.333c-2.075 0-3.394 1.416-3.394 3.701 0 2.28 1.299 3.706 3.394 3.706 2.08 0 3.388-1.426 3.388-3.706 0-2.28-1.313-3.701-3.388-3.701zm0 1.25c1.142 0 1.88.952 1.88 2.451 0 1.494-.733 2.456-1.88 2.456-1.162 0-1.885-.962-1.885-2.456 0-1.499.737-2.451 1.885-2.451zm13.191 5.976v-7.046h-1.734l-1.953 4.859h-.088l-1.948-4.859h-1.738v7.046h1.367v-4.77h.078l1.797 4.424h.981l1.792-4.424h.079v4.77h1.367zm5.73-7.226c-2.075 0-3.394 1.416-3.394 3.701 0 2.28 1.299 3.706 3.394 3.706 2.08 0 3.388-1.426 3.388-3.706 0-2.28-1.313-3.701-3.388-3.701zm0 1.25c1.142 0 1.88.952 1.88 2.451 0 1.494-.733 2.456-1.88 2.456-1.162 0-1.885-.962-1.885-2.456 0-1.499.737-2.451 1.885-2.451zm5.412 4.028c.054 1.304 1.143 2.129 2.823 2.129 1.767 0 2.856-.869 2.856-2.275 0-1.089-.61-1.7-2.026-2.002l-.85-.181c-.825-.181-1.162-.44-1.162-.884 0-.552.488-.908 1.226-.908.713 0 1.23.376 1.299.952h1.386c-.044-1.245-1.142-2.109-2.695-2.109-1.626 0-2.695.869-2.695 2.182 0 1.07.629 1.729 1.914 2.002l.918.2c.864.191 1.215.459 1.215.923 0 .547-.542.933-1.308.933-.83 0-1.406-.376-1.475-.962h-1.426z"/>
    <path fill="#E20074" fill-rule="evenodd" d="M161.121 166.837c.325.324.751.486 1.178.486.427 0 .854-.162 1.179-.486l9.943-9.921c.287-.285.458-.664.485-1.066l.512-7.671c.032-.479-.144-.947-.484-1.287-.34-.339-.805-.516-1.29-.483l-7.689.511c-.403.027-.782.198-1.068.484l-9.945 9.921c-.648.648-.648 1.703.001 2.35l7.178 7.162zm3.944-18.283l7.689-.511.027.026-.52 7.69-9.979 9.92-7.178-7.197 9.961-9.928z" clip-rule="evenodd"/>
    <path fill="#E20074" d="M161.121 166.837l.176-.177-.176.177zm2.357 0l.177.177-.177-.177zm9.943-9.921l-.176-.177.176.177zm.485-1.066l.25.017-.25-.017zm.512-7.671l-.249-.017.249.017zm-.484-1.287l.177-.177-.177.177zm-1.29-.483l.017.249-.017-.249zm-7.689.511l-.016-.25.016.25zm-1.068.484l.177.176-.177-.176zm-9.945 9.921l-.176-.177h-.001l.177.177zm.001 2.35l.177-.177-.177.177zm18.811-11.632l.177-.177-.08-.08-.113.008.016.249zm-7.689.511l-.017-.25-.093.007-.067.066.177.177zm7.716-.485l.249.017.008-.113-.081-.081-.176.177zm-.52 7.69l.177.177.066-.066.007-.095-.25-.016zm-9.979 9.92l-.177.177.176.176.177-.176-.176-.177zm-7.178-7.197l-.176-.177-.177.176.176.177.177-.176zm7.195 8.591c-.364 0-.726-.138-1.002-.413l-.353.354c.374.373.864.559 1.355.559v-.5zm1.003-.413c-.277.275-.639.413-1.003.413v.5c.49 0 .981-.186 1.356-.559l-.353-.354zm9.943-9.921l-9.943 9.921.353.354 9.943-9.921-.353-.354zm.412-.906c-.023.342-.169.664-.412.906l.353.354c.33-.328.527-.764.558-1.226l-.499-.034zm.512-7.671l-.512 7.672.499.033.512-7.672-.499-.033zm-.411-1.093c.288.289.438.686.411 1.093l.499.034c.037-.552-.166-1.09-.557-1.481l-.353.354zm-1.097-.411c.413-.028.807.122 1.097.411l.353-.354c-.391-.39-.926-.593-1.483-.556l.033.499zm-7.689.511l7.689-.511-.033-.499-7.689.511.033.499zm-.908.411c.242-.242.565-.388.908-.411l-.033-.499c-.463.031-.9.228-1.229.557l.354.353zm-9.945 9.922l9.945-9.922-.354-.353-9.944 9.921.353.354zm.001 1.996c-.552-.55-.552-1.446-.001-1.996l-.354-.354c-.745.746-.746 1.959.001 2.704l.354-.354zm7.177 7.162l-7.177-7.162-.354.354 7.178 7.162.353-.354zm11.441-18.866l-7.69.51.033.499 7.69-.511-.033-.498zm.219.098l-.026-.026-.353.354.026.026.353-.354zm-.446 7.883l.519-7.689-.499-.034-.519 7.69.499.033zm-10.053 10.081l9.98-9.92-.353-.355-9.979 9.921.352.354zm-7.531-7.198l7.178 7.198.354-.353-7.178-7.198-.354.353zm9.961-10.281l-9.96 9.928.353.354 9.96-9.928-.353-.354z"/>
    <path fill="#E20074" fill-rule="evenodd" d="M165.308 155.498c.474.473 1.106.735 1.776.735.672 0 1.303-.262 1.778-.735.474-.473.735-1.103.735-1.771 0-.67-.262-1.301-.735-1.773-.949-.946-2.606-.946-3.554-.001-.474.473-.736 1.104-.736 1.774 0 .668.262 1.299.736 1.771zm1.162-2.386c.164-.166.382-.256.614-.256.234 0 .451.09.616.257.166.163.256.381.256.614 0 .231-.091.449-.256.613v.001c-.328.328-.901.33-1.231-.001-.166-.164-.256-.382-.256-.613 0-.233.091-.451.257-.615z" clip-rule="evenodd"/>
    <path fill="#E20074" d="M165.308 155.498l.176-.177-.176.177zm3.554 0l-.177-.177.177.177zm0-3.544l.176-.177-.176.177zm-3.554-.001l.177.177-.177-.177zm1.162 1.159l.176.177.001-.001-.177-.176zm1.23.001l-.177.176.002.001.175-.177zm0 1.227l-.176-.178v.001l.176.177zm0 .001l-.177-.177.177.177zm-1.231-.001l.177-.177-.002-.001-.175.178zm.615 1.643c-.604 0-1.173-.235-1.6-.662l-.353.354c.521.52 1.217.808 1.953.808v-.5zm1.601-.662c-.427.427-.995.662-1.601.662v.5c.738 0 1.433-.288 1.954-.808l-.353-.354zm.662-1.594c0 .602-.235 1.168-.662 1.594l.353.354c.521-.52.809-1.213.809-1.948h-.5zm-.662-1.596c.426.425.662.992.662 1.596h.5c0-.737-.288-1.431-.809-1.95l-.353.354zm-3.2-.001c.85-.848 2.349-.847 3.2.001l.353-.354c-1.046-1.043-2.861-1.044-3.906-.001l.353.354zm-.663 1.597c0-.604.236-1.17.663-1.597l-.353-.354c-.522.52-.81 1.214-.81 1.951h.5zm.662 1.594c-.426-.425-.662-.992-.662-1.594h-.5c0 .735.288 1.429.809 1.948l.353-.354zm1.6-2.715c-.298 0-.581.117-.792.33l.355.352c.117-.118.271-.182.437-.182v-.5zm.794.33c-.212-.213-.494-.33-.794-.33v.5c.168 0 .321.064.439.183l.355-.353zm.328.791c0-.299-.116-.581-.33-.792l-.351.355c.118.117.181.27.181.437h.5zm-.329.79c.211-.21.329-.492.329-.79h-.5c0 .164-.064.318-.182.435l.353.355zm-.001.001l.001-.001-.353-.354-.001.001.353.354zm-1.584-.002c.428.43 1.16.427 1.585.001l-.354-.353c-.23.231-.645.233-.877-.001l-.354.353zm-.329-.789c0 .298.116.58.33.791l.351-.356c-.118-.117-.181-.27-.181-.435h-.5zm.33-.793c-.212.211-.33.493-.33.793h.5c0-.166.064-.32.183-.438l-.353-.355z"/>
    <path fill="#E20074" stroke="#E20074" stroke-width=".5" d="M173.665 147.98c-.211 0-.421-.08-.581-.24-.32-.32-.32-.838 0-1.158l3.589-3.58c.321-.32.839-.32 1.16 0 .321.32.321.838 0 1.158l-3.588 3.58c-.16.16-.37.24-.58.24z"/>
    <defs>
        <filter id="prefix__filter0_d" width="130" height="130" x="0" y="100" color-interpolation-filters="sRGB" filterUnits="userSpaceOnUse">
            <feFlood flood-opacity="0" result="BackgroundImageFix"/>
            <feColorMatrix in="SourceAlpha" values="0 0 0 0 0 0 0 0 0 0 0 0 0 0 0 0 0 0 127 0"/>
            <feOffset/>
            <feGaussianBlur stdDeviation="7.5"/>
            <feColorMatrix values="0 0 0 0 0 0 0 0 0 0 0 0 0 0 0 0 0 0 0.15 0"/>
            <feBlend in2="BackgroundImageFix" result="effect1_dropShadow"/>
            <feBlend in="SourceGraphic" in2="effect1_dropShadow" result="shape"/>
        </filter>
        <filter id="prefix__filter1_d" width="130" height="130" x="100" y="0" color-interpolation-filters="sRGB" filterUnits="userSpaceOnUse">
            <feFlood flood-opacity="0" result="BackgroundImageFix"/>
            <feColorMatrix in="SourceAlpha" values="0 0 0 0 0 0 0 0 0 0 0 0 0 0 0 0 0 0 127 0"/>
            <feOffset/>
            <feGaussianBlur stdDeviation="7.5"/>
            <feColorMatrix values="0 0 0 0 0 0 0 0 0 0 0 0 0 0 0 0 0 0 0.15 0"/>
            <feBlend in2="BackgroundImageFix" result="effect1_dropShadow"/>
            <feBlend in="SourceGraphic" in2="effect1_dropShadow" result="shape"/>
        </filter>
        <filter id="prefix__filter2_d" width="130" height="130" x="0" y="0" color-interpolation-filters="sRGB" filterUnits="userSpaceOnUse">
            <feFlood flood-opacity="0" result="BackgroundImageFix"/>
            <feColorMatrix in="SourceAlpha" values="0 0 0 0 0 0 0 0 0 0 0 0 0 0 0 0 0 0 127 0"/>
            <feOffset/>
            <feGaussianBlur stdDeviation="7.5"/>
            <feColorMatrix values="0 0 0 0 0 0 0 0 0 0 0 0 0 0 0 0 0 0 0.15 0"/>
            <feBlend in2="BackgroundImageFix" result="effect1_dropShadow"/>
            <feBlend in="SourceGraphic" in2="effect1_dropShadow" result="shape"/>
        </filter>
        <filter id="prefix__filter3_d" width="130" height="130" x="100" y="100" color-interpolation-filters="sRGB" filterUnits="userSpaceOnUse">
            <feFlood flood-opacity="0" result="BackgroundImageFix"/>
            <feColorMatrix in="SourceAlpha" values="0 0 0 0 0 0 0 0 0 0 0 0 0 0 0 0 0 0 127 0"/>
            <feOffset/>
            <feGaussianBlur stdDeviation="7.5"/>
            <feColorMatrix values="0 0 0 0 0 0 0 0 0 0 0 0 0 0 0 0 0 0 0.15 0"/>
            <feBlend in2="BackgroundImageFix" result="effect1_dropShadow"/>
            <feBlend in="SourceGraphic" in2="effect1_dropShadow" result="shape"/>
        </filter>
    </defs>
</svg>
