<svg xmlns="http://www.w3.org/2000/svg" width="100" height="100" fill="none" viewBox="0 0 100 100">
    <path fill="#fff" d="M0 0H100V100H0z"/>
    
    <path fill="#E20074" fill-rule="evenodd" d="M45.333 27.5h8.458c1.329 0 2.416 1.149 2.416 2.553v21.06c0 1.404-1.087 2.553-2.416 2.553h-8.458c-1.33 0-2.417-1.15-2.417-2.553v-21.06c0-1.404 1.088-2.553 2.417-2.553zm8.458 25.528c1 0 1.812-.86 1.812-1.915v-21.06c0-1.056-.813-1.915-1.812-1.915h-.604c-.166 0-.302.144-.302.32v.319c0 .352-.27.638-.604.638h-5.438c-.333 0-.604-.286-.604-.639v-.319c0-.175-.136-.319-.302-.319h-.604c-1 0-1.813.86-1.813 1.915v21.06c0 1.056.813 1.915 1.813 1.915h8.458z" clip-rule="evenodd"/>
    <path fill="#E20074" d="M53.79 26.85h-8.457v1.3h8.458v-1.3zm3.067 3.203c0-1.73-1.345-3.203-3.066-3.203v1.3c.937 0 1.766.824 1.766 1.903h1.3zm0 21.06v-21.06h-1.3v21.06h1.3zm-3.066 3.203c1.721 0 3.066-1.474 3.066-3.203h-1.3c0 1.079-.83 1.903-1.766 1.903v1.3zm-8.458 0h8.458v-1.3h-8.458v1.3zm-3.067-3.203c0 1.729 1.346 3.203 3.067 3.203v-1.3c-.937 0-1.767-.824-1.767-1.903h-1.3zm0-21.06v21.06h1.3v-21.06h-1.3zm3.067-3.203c-1.721 0-3.067 1.474-3.067 3.203h1.3c0-1.08.83-1.903 1.767-1.903v-1.3zm9.62 24.263c0 .73-.555 1.264-1.162 1.264v1.3c1.391 0 2.462-1.183 2.462-2.564h-1.3zm0-21.06v21.06h1.3v-21.06h-1.3zm-1.162-1.265c.607 0 1.162.534 1.162 1.265h1.3c0-1.38-1.07-2.565-2.462-2.565v1.3zm-.604 0h.604v-1.3h-.604v1.3zm.348-.33c0 .149-.122.33-.348.33v-1.3c-.558 0-.952.469-.952.97h1.3zm0 .319v-.32h-1.3v.32h1.3zm-1.254 1.288c.725 0 1.254-.611 1.254-1.289h-1.3c0 .009-.003.009 0 .005.003-.002.007-.006.016-.01.008-.004.02-.006.03-.006v1.3zm-5.438 0h5.438v-1.3h-5.438v1.3zm-1.254-1.289c0 .678.529 1.289 1.254 1.289v-1.3c.01 0 .021.002.03.006.009.004.013.008.015.01.004.004.001.004.001-.005h-1.3zm0-.319v.32h1.3v-.32h-1.3zm.348.331c-.226 0-.348-.181-.348-.33h1.3c0-.501-.394-.97-.952-.97v1.3zm-.604 0h.604v-1.3h-.604v1.3zm-1.163 1.265c0-.73.556-1.265 1.163-1.265v-1.3c-1.392 0-2.462 1.184-2.462 2.565h1.3zm0 21.06v-21.06h-1.3v21.06h1.3zm1.163 1.264c-.607 0-1.163-.533-1.163-1.264h-1.3c0 1.38 1.071 2.565 2.463 2.565v-1.3zm8.458 0h-8.458v1.3h8.458v-1.3z"/>
</svg>
