<svg xmlns="http://www.w3.org/2000/svg" width="100" height="100" fill="none" viewBox="0 0 100 100">
    <path fill="#fff" d="M0 0H100V100H0z"/>
    <path fill="#E20074" fill-rule="evenodd" d="M56.24 32.626c-.003-.492.373-.906.87-.958H63.68c.536 0 .97.429.97.958v19.782c0 .529-.434.957-.97.957h-6.47c-.535 0-.97-.428-.97-.957V32.626zm6.47.957h-4.529V51.45h4.53V33.583zm-15.85 6.381c-.537 0-.971.429-.971.957v11.487c0 .529.434.957.97.957h6.47c.536 0 .97-.428.97-.957V40.921c.003-.492-.373-.905-.869-.957-.033-.002-.067-.002-.1 0h-6.47zm5.499 1.915h-4.53v9.572h4.53v-9.572zM36.508 44.43c-.536 0-.97.429-.97.957v7.02c0 .529.434.957.97.957h6.47c.535 0 .97-.428.97-.957v-7.02c.003-.492-.373-.906-.87-.957-.033-.002-.067-.002-.1 0h-6.47zm5.499 1.915h-4.529v5.105h4.529v-5.105z" clip-rule="evenodd"/>
    
</svg>
