<svg xmlns="http://www.w3.org/2000/svg" width="100" height="100" fill="none" viewBox="0 0 100 100">
    <path fill="#fff" d="M0 0H100V100H0z"/>
    
    <path fill="#E20074" fill-rule="evenodd" d="M46.121 51.837c.325.324.75.486 1.178.486.427 0 .854-.162 1.18-.486l9.943-9.92c.286-.286.458-.665.485-1.067l.512-7.671c.032-.48-.145-.948-.484-1.287-.341-.34-.805-.516-1.29-.483l-7.69.51c-.402.027-.782.199-1.068.484l-9.945 9.922c-.648.648-.648 1.703.001 2.35l7.178 7.162zm3.944-18.283l7.69-.511.026.026-.52 7.69-9.979 9.92-7.177-7.197 9.96-9.928z" clip-rule="evenodd"/>
    <path fill="#E20074" d="M46.121 51.837l.176-.177-.176.177zm2.357 0l.177.177-.177-.177zm9.944-9.92l-.177-.178.177.177zm.485-1.067l.25.017-.25-.017zm.512-7.671l-.25-.017.25.017zm-.484-1.287l.176-.177-.176.177zm-1.29-.483l.016.25-.016-.25zm-7.69.51l-.016-.249.017.25zm-1.068.484l.177.177-.177-.177zm-9.945 9.922l-.176-.177.176.177zm.001 2.35l.177-.177-.177.177zm18.812-11.632l.176-.177-.08-.08-.113.007.017.25zm-7.69.51l-.017-.249-.093.006-.067.067.177.177zm7.716-.484l.25.017.007-.114-.08-.08-.177.177zm-.52 7.69l.177.177.067-.067.006-.094-.25-.017zm-9.979 9.92l-.177.176.177.177.177-.176-.177-.177zm-7.177-7.197l-.177-.178-.177.177.177.177.177-.176zm7.194 8.59c-.364 0-.725-.137-1.002-.412l-.353.354c.374.373.864.559 1.355.559v-.5zm1.003-.413c-.277.276-.64.414-1.003.414v.5c.49 0 .981-.186 1.356-.56l-.353-.354zm9.943-9.92l-9.943 9.92.353.355 9.943-9.92-.353-.355zm.412-.906c-.023.342-.169.664-.412.906l.353.354c.33-.328.527-.764.558-1.226l-.499-.034zm.512-7.67l-.512 7.67.5.034.511-7.672-.499-.033zm-.411-1.094c.289.288.438.686.411 1.093l.5.033c.036-.55-.167-1.09-.558-1.48l-.353.354zm-1.097-.41c.413-.029.807.121 1.097.41l.353-.355c-.391-.389-.926-.592-1.483-.555l.033.5zm-7.689.51l7.69-.51-.034-.5-7.689.511.033.499zm-.908.411c.242-.242.565-.388.908-.411l-.033-.499c-.463.031-.9.228-1.229.557l.354.353zm-9.945 9.922l9.945-9.922-.353-.354-9.945 9.922.353.354zm0 1.996c-.55-.55-.55-1.446 0-1.997l-.353-.353c-.746.746-.746 1.959 0 2.704l.354-.354zm7.178 7.162l-7.177-7.162-.353.354 7.177 7.162.353-.354zm11.441-18.867l-7.69.511.033.5 7.69-.512-.033-.499zm.22.1l-.027-.027-.353.354.026.026.354-.354zm-.447 7.882l.52-7.69-.5-.033-.519 7.69.499.033zM47.458 50.856l9.98-9.92-.353-.355-9.979 9.92.352.355zm-7.53-7.198l7.177 7.197.354-.352-7.178-7.198-.353.353zm9.96-10.281l-9.96 9.927.353.355 9.96-9.928-.353-.354z"/>
    <path fill="#E20074" fill-rule="evenodd" d="M50.308 40.498c.474.473 1.106.735 1.776.735.672 0 1.303-.262 1.778-.735.474-.473.735-1.103.735-1.771 0-.67-.262-1.3-.735-1.773-.949-.946-2.606-.947-3.553 0-.475.472-.736 1.103-.736 1.773 0 .668.261 1.299.735 1.771zm1.162-2.386c.164-.166.382-.256.614-.256.234 0 .452.09.617.256.166.164.256.382.256.614 0 .232-.091.45-.256.614H52.7c-.328.329-.9.331-1.231 0-.166-.164-.256-.382-.256-.614 0-.232.091-.45.257-.614z" clip-rule="evenodd"/>
    <path fill="#E20074" d="M50.308 40.498l.176-.177-.176.177zm3.554 0l-.177-.177.177.177zm0-3.544l.176-.177-.176.177zm-3.553 0l.176.176-.176-.177zm1.16 1.158l.177.177.001-.001-.177-.176zm1.232 0l-.178.177.002.001.176-.178zm0 1.228l-.176-.178.176.178zm-.001 0l-.177-.176.177.177zm-1.231 0l.177-.177-.001-.001-.176.178zm.615 1.643c-.604 0-1.172-.235-1.6-.662l-.353.354c.521.52 1.217.808 1.953.808v-.5zm1.601-.662c-.427.427-.995.662-1.6.662v.5c.738 0 1.432-.288 1.953-.808l-.353-.354zm.662-1.594c0 .602-.235 1.168-.662 1.594l.353.354c.522-.52.809-1.213.809-1.948h-.5zm-.662-1.596c.427.425.662.992.662 1.596h.5c0-.737-.288-1.43-.809-1.95l-.353.354zm-3.2 0c.85-.849 2.35-.849 3.2 0l.353-.354c-1.046-1.043-2.86-1.044-3.906 0l.353.353zm-.663 1.596c0-.604.236-1.17.663-1.597l-.353-.354c-.521.52-.81 1.214-.81 1.95h.5zm.662 1.594c-.426-.425-.662-.992-.662-1.594h-.5c0 .735.289 1.429.81 1.948l.352-.354zm1.6-2.715c-.298 0-.58.116-.792.33l.355.352c.117-.118.271-.182.437-.182v-.5zm.794.33c-.212-.213-.493-.33-.794-.33v.5c.168 0 .322.064.44.183l.354-.353zm.329.79c0-.298-.117-.58-.33-.791l-.352.355c.118.117.182.27.182.437h.5zm-.33.791c.212-.21.33-.492.33-.79h-.5c0 .164-.065.318-.182.435l.352.355zm0 0l-.353-.354.352.355zm-1.585 0c.429.43 1.16.426 1.585 0l-.354-.353c-.23.23-.644.233-.877 0l-.354.352zm-.33-.79c0 .298.118.58.331.79l.352-.355c-.118-.117-.182-.27-.182-.435h-.5zm.332-.793c-.213.211-.331.493-.331.793h.5c0-.166.064-.32.183-.438l-.352-.355z"/>
    <path fill="#E20074" stroke="#E20074" stroke-width=".5" d="M58.665 32.98c-.21 0-.42-.08-.58-.24-.321-.32-.321-.838 0-1.158l3.588-3.58c.32-.32.84-.32 1.16 0 .321.32.321.838 0 1.158l-3.588 3.58c-.16.16-.37.24-.58.24z"/>
</svg>
